<svg width="208" height="19" viewBox="0 0 208 19" fill="none" xmlns="http://www.w3.org/2000/svg">
<path d="M14.1596 9.21598C15.1516 9.58398 15.9196 10.12 16.4636 10.824C17.0076 11.528 17.2796 12.376 17.2796 13.368C17.2796 14.84 16.6716 15.984 15.4556 16.8C14.2396 17.6 12.4796 18 10.1756 18H0.719563V1.19998H9.69556C11.9356 1.19998 13.6236 1.59998 14.7596 2.39998C15.9116 3.19998 16.4876 4.26398 16.4876 5.59198C16.4876 6.37598 16.2876 7.07998 15.8876 7.70398C15.5036 8.32798 14.9276 8.83198 14.1596 9.21598ZM6.28756 5.15998V7.65598H8.92756C10.1596 7.65598 10.7756 7.23998 10.7756 6.40798C10.7756 5.57598 10.1596 5.15998 8.92756 5.15998H6.28756ZM9.69556 14.04C10.9436 14.04 11.5676 13.6 11.5676 12.72C11.5676 11.84 10.9436 11.4 9.69556 11.4H6.28756V14.04H9.69556Z" fill="white"/>
<path d="M19.2821 1.19998H24.9461V13.608H32.5301V18H19.2821V1.19998Z" fill="white"/>
<path d="M42.0174 18.384C39.4414 18.384 37.4334 17.688 35.9934 16.296C34.5534 14.904 33.8334 12.952 33.8334 10.44V1.19998H39.4974V10.272C39.4974 11.504 39.7134 12.4 40.1454 12.96C40.5934 13.52 41.2334 13.8 42.0654 13.8C42.8974 13.8 43.5294 13.52 43.9614 12.96C44.4094 12.4 44.6334 11.504 44.6334 10.272V1.19998H50.2014V10.44C50.2014 12.952 49.4814 14.904 48.0414 16.296C46.6014 17.688 44.5934 18.384 42.0174 18.384Z" fill="white"/>
<path d="M66.7657 13.728V18H52.7977V1.19998H66.4537V5.47198H58.3657V7.43998H65.4697V11.52H58.3657V13.728H66.7657Z" fill="white"/>
<path d="M83.9461 18L83.8981 10.344L80.2501 16.488H77.7541L74.1061 10.608V18H68.9461V1.19998H73.6021L79.0741 10.152L84.4021 1.19998H89.0581L89.1061 18H83.9461Z" fill="white"/>
<path d="M100.653 18.384C98.8446 18.384 97.2206 18.008 95.7806 17.256C94.3406 16.504 93.2126 15.464 92.3966 14.136C91.5806 12.792 91.1726 11.28 91.1726 9.59998C91.1726 7.91998 91.5806 6.41598 92.3966 5.08798C93.2126 3.74398 94.3406 2.69598 95.7806 1.94398C97.2206 1.19198 98.8446 0.815979 100.653 0.815979C102.461 0.815979 104.085 1.19198 105.525 1.94398C106.965 2.69598 108.093 3.74398 108.909 5.08798C109.725 6.41598 110.133 7.91998 110.133 9.59998C110.133 11.28 109.725 12.792 108.909 14.136C108.093 15.464 106.965 16.504 105.525 17.256C104.085 18.008 102.461 18.384 100.653 18.384ZM100.653 13.8C101.357 13.8 101.989 13.632 102.549 13.296C103.125 12.944 103.581 12.456 103.917 11.832C104.253 11.192 104.421 10.448 104.421 9.59998C104.421 8.75198 104.253 8.01598 103.917 7.39198C103.581 6.75198 103.125 6.26398 102.549 5.92798C101.989 5.57598 101.357 5.39998 100.653 5.39998C99.9486 5.39998 99.3086 5.57598 98.7326 5.92798C98.1726 6.26398 97.7246 6.75198 97.3886 7.39198C97.0526 8.01598 96.8846 8.75198 96.8846 9.59998C96.8846 10.448 97.0526 11.192 97.3886 11.832C97.7246 12.456 98.1726 12.944 98.7326 13.296C99.3086 13.632 99.9486 13.8 100.653 13.8Z" fill="white"/>
<path d="M120.996 18.384C119.188 18.384 117.564 18.008 116.124 17.256C114.684 16.504 113.556 15.464 112.74 14.136C111.924 12.792 111.516 11.28 111.516 9.59998C111.516 7.91998 111.924 6.41598 112.74 5.08798C113.556 3.74398 114.684 2.69598 116.124 1.94398C117.564 1.19198 119.188 0.815979 120.996 0.815979C122.804 0.815979 124.428 1.19198 125.868 1.94398C127.308 2.69598 128.436 3.74398 129.252 5.08798C130.068 6.41598 130.476 7.91998 130.476 9.59998C130.476 11.28 130.068 12.792 129.252 14.136C128.436 15.464 127.308 16.504 125.868 17.256C124.428 18.008 122.804 18.384 120.996 18.384ZM120.996 13.8C121.7 13.8 122.332 13.632 122.892 13.296C123.468 12.944 123.924 12.456 124.26 11.832C124.596 11.192 124.764 10.448 124.764 9.59998C124.764 8.75198 124.596 8.01598 124.26 7.39198C123.924 6.75198 123.468 6.26398 122.892 5.92798C122.332 5.57598 121.7 5.39998 120.996 5.39998C120.292 5.39998 119.652 5.57598 119.076 5.92798C118.516 6.26398 118.068 6.75198 117.732 7.39198C117.396 8.01598 117.228 8.75198 117.228 9.59998C117.228 10.448 117.396 11.192 117.732 11.832C118.068 12.456 118.516 12.944 119.076 13.296C119.652 13.632 120.292 13.8 120.996 13.8Z" fill="white"/>
<path d="M149.092 1.19998V18H144.436L138.052 10.368V18H132.532V1.19998H137.188L143.572 8.83198V1.19998H149.092Z" fill="white"/>
<path d="M170.968 13.272H161.224L159.088 18H157.768L165.496 1.19998H166.72L174.448 18H173.128L170.968 13.272ZM170.512 12.24L166.096 2.54398L161.704 12.24H170.512Z" fill="white"/>
<path d="M183.522 1.19998C185.634 1.19998 187.29 1.70398 188.49 2.71198C189.69 3.70398 190.29 5.08798 190.29 6.86398C190.29 8.62398 189.69 10.008 188.49 11.016C187.29 12.008 185.634 12.504 183.522 12.504H178.722V18H177.498V1.19998H183.522ZM183.522 11.4C185.314 11.4 186.682 11.008 187.626 10.224C188.57 9.43998 189.042 8.31998 189.042 6.86398C189.042 5.40798 188.57 4.28798 187.626 3.50398C186.682 2.70398 185.314 2.30398 183.522 2.30398H178.722V11.4H183.522Z" fill="white"/>
<path d="M200.444 1.19998C202.556 1.19998 204.212 1.70398 205.412 2.71198C206.612 3.70398 207.212 5.08798 207.212 6.86398C207.212 8.62398 206.612 10.008 205.412 11.016C204.212 12.008 202.556 12.504 200.444 12.504H195.644V18H194.42V1.19998H200.444ZM200.444 11.4C202.236 11.4 203.604 11.008 204.548 10.224C205.492 9.43998 205.964 8.31998 205.964 6.86398C205.964 5.40798 205.492 4.28798 204.548 3.50398C203.604 2.70398 202.236 2.30398 200.444 2.30398H195.644V11.4H200.444Z" fill="white"/>
</svg>
